<svg xmlns="http://www.w3.org/2000/svg" xmlns:xlink="http://www.w3.org/1999/xlink" preserveAspectRatio="xMidYMid" width="69" height="71" viewBox="0 0 69 71">
  <defs>
    <style>
      .cls-1 {
        stroke: #fff;
      }

      .cls-1, .cls-2 {
        stroke-width: 2px;
        fill: none;
      }

      .cls-1, .cls-2, .cls-3 {
        fill-rule: evenodd;
      }

      .cls-2 {
        stroke: #f6f7fc;
      }

      .cls-3, .cls-4 {
        fill: #fff;
      }
    </style>
  </defs>
  <g>
    <path d="M63.675,68.857 L34.860,13.860 L6.046,68.857 L63.675,68.857 Z" class="cls-1"/>
    <path d="M34.500,1.000 C53.002,1.000 68.000,15.870 68.000,34.214 C68.000,52.558 53.002,67.429 34.500,67.429 C15.998,67.429 1.000,52.558 1.000,34.214 C1.000,15.870 15.998,1.000 34.500,1.000 Z" class="cls-2"/>
    <path d="M33.860,62.857 C35.850,62.857 37.462,64.456 37.462,66.429 C37.462,68.401 35.850,70.000 33.860,70.000 C31.871,70.000 30.258,68.401 30.258,66.429 C30.258,64.456 31.871,62.857 33.860,62.857 Z" class="cls-3"/>
    <circle cx="61.515" cy="67.422" r="3.61" class="cls-4"/>
    <path d="M5.043,62.857 C7.032,62.857 8.645,64.456 8.645,66.429 C8.645,68.401 7.032,70.000 5.043,70.000 C3.054,70.000 1.441,68.401 1.441,66.429 C1.441,64.456 3.054,62.857 5.043,62.857 Z" class="cls-3"/>
  </g>
</svg>
